<?xml version="1.0" encoding="utf-8"?>
<!-- Generator: Adobe Illustrator 25.4.1, SVG Export Plug-In . SVG Version: 6.00 Build 0)  -->
<svg version="1.1" id="DN" xmlns="http://www.w3.org/2000/svg" xmlns:xlink="http://www.w3.org/1999/xlink" x="0px" y="0px"
	 viewBox="0 0 1085.1 333.1" style="enable-background:new 0 0 1085.1 333.1;" xml:space="preserve">
<style type="text/css">
	.st0{enable-background:new    ;}
	.st1{fill:#3379FE;}
	.st2{fill:#FF2727;}
</style>
<g class="st0">
	<path class="st1" d="M51.5,227.5c-1-1.3-1.3-1.3-2.3,0c-1,3-3,7.4-3.7,9.4c-1,2.3-1.3,3.3-1.7,4.3c-1,3.3-3.3,5-7,5
		c-5.4,0-10.4-2.3-15.4-7c-5-4.3-7.4-9.4-7.4-14.4c0-2,0.3-3.7,1-5.4c6.4-13.7,36.5-73.3,90-179.3c0.3-0.3,0.3-1,0.3-1.3
		c0-0.3-0.3-0.7-1-0.7c-0.3,0-0.7,0-1,0c-21.7,6.7-39.1,16.7-52.9,30.4c-13.7,13.7-20.4,25.1-20.4,34.8c0,7.7,10,10.7,10,14
		s-2,5-6,5c-8,0-14.7-4.7-20.1-13.7c-5.4-9-8-18.1-8-27.1C6,42.5,70.6,13.4,119.1,9.4c1-0.3,2-0.7,2.3-1.3l1.7-3.7
		c1.7-3,4-4.3,7.7-4.3c5.4,0,14.7,4.7,18.7,10c0.7,0.7,1.3,1,2.3,1.3c38.5,9.7,57.5,41.5,57.5,83c0,16.7-3.3,34.1-10.4,52.5
		S183,182,171.9,197c-11,15.1-24.1,27.4-38.8,37.1c-15.1,9.7-29.8,14.7-44.2,14.7C69.2,248.9,56.9,241.8,51.5,227.5z M114.7,204.4
		c12.7-9,23.8-20.4,33.1-34.1c9-13.7,16.7-28.4,22.7-44.8c5.7-16.1,8.7-30.8,8.7-44.5c0-32.1-19.1-46.8-31.1-46.8c-1,0-2,0.3-2.3,1
		c-9.7,18.1-24.4,46.2-43.8,84.3c-19.4,38.1-34.8,69.2-45.8,93c-0.3,0.3-0.3,1-0.3,1.3s0.3,0.7,1,1c6,2.3,12.4,3.3,19.4,3.3
		C89,218.1,101.7,213.4,114.7,204.4z"/>
	<path class="st1" d="M201,202.7c0-14.4,4-31.1,12.4-49.8c8.4-18.7,19.1-35.1,32.1-49.2c13-13.7,25.8-20.7,37.5-20.7
		c15.1,0,34.5,12.7,34.5,32.4c0,15.1-7.4,29.4-21.7,42.8c-14.4,13.7-29.4,20.4-45.2,20.4c-4.3,0-9.7-1.3-9.7-1.3
		c-1,0-1.3,0.3-1.7,1.3c-3.3,10-5,18.4-5,25.4c0,11.4,4.7,17.1,13.7,17.1c14.4,0,36.1-14.4,53.9-37.1c10.7-13.7,20.7-28.8,30.1-44.8
		c0.3-0.7,1-1,1.3-1c2.7,0,7.7,4.3,7.7,8.4c0,4.7-7.4,18.1-22.1,40.1c-10.7,16.4-23.1,30.4-36.8,41.8c-14,11.7-28.1,17.4-42.5,17.4
		C217.1,245.8,201,228.5,201,202.7z M279.6,141.5c10.4-13.7,15.4-24.1,15.4-31.8c0-3-1-4.3-3.3-4.3c-5,0-12,5.4-20.4,15.7
		c-8.7,10.4-16.4,22.7-23.4,37.1c-0.3,0.7-0.7,1.3-0.7,2c0,1.3,1.3,2,3.7,2C259.9,162.2,269.3,155.2,279.6,141.5z"/>
	<path class="st1" d="M377.3,215.4c0-8.4,3.7-21.1,8-32.1c2.3-6.7,8.7-18.7,11.4-24.1c1.3-2.7,3.7-7,7-12.7c3-5.7,5.4-9.4,6.4-11
		c1-1.7,3.3-5.7,7-11.4c3.3-5.7,5.4-9,5.7-10c0.3-0.3,0.3-0.7,0.3-1c0-1.3-1.3-1.3-3,0.3c-13.7,12.4-31.4,32.4-52.5,60.2
		c-21.1,27.8-36.5,50.5-45.8,67.6c-1,3-3,4.3-6,4.3c-8.4,0-18.4-9-18.4-20.1c0-2.7,0.7-5.4,1.7-8c3-8.4,12.4-29.1,27.8-62.9
		c15.1-33.8,25.4-55.9,31.1-66.6c1.3-2.3,3.3-3.3,6.4-3.3c4.3,0,8.7,2,13.4,6c4.7,4.3,7,8.7,7,13c0,2.3-0.7,4.3-1.7,6
		c-6,8.4-16.1,26.8-29.8,55.9c-0.3,1-0.3,1.7-0.3,2c0,0.7,0.3,1,0.7,1c1,0,2-1,3-3c15.4-21.7,31.4-41.1,47.8-57.9
		c16.4-16.4,28.4-24.8,35.5-24.8c5,0,9.7,2.7,13.7,8c4,5.7,6,11.7,6,18.4c0,2.3-1.3,6-4.3,10.7c-10,15.7-20.1,34.1-30.1,54.9
		c-10,20.7-15.1,33.8-15.1,39.1c0,2.3,1,3.3,2.7,3.3c6,0,23.4-23.4,37.8-46.2c5.4-8.4,12-19.4,16.1-25.4c3.7-6,8.4-13.7,8.7-14.7
		c0.3-0.3,1-0.7,1.7-0.7c3.7,0,9,4.3,9,7.4c0,0.3,0,1-0.3,1.3c-38.5,71.2-67.2,106.7-86.3,106.7
		C388.4,245.8,377.3,235.1,377.3,215.4z"/>
	<path class="st1" d="M454.2,214.1c0-5.4,1-12.4,3.3-21.1c0.3-0.3,0.3-0.7,0.3-1c0-0.3-0.3-0.7-1-0.7c-0.3,0-0.3,0-0.7,0.3
		c-2.7,0.7-5.4,1-8,1c-4,0-6-0.7-6-2.3c0-0.3,0-0.7,0.3-1c5-7.4,12.7-19.4,22.7-35.8c10-16.4,18.7-31.8,26.1-46.2
		c0.3-0.3,0.3-0.7,0.3-1c0-0.7-0.7-1-1.7-1.3c-5.7-1.7-11-8.4-11-12.7c0-2.3,1.3-4,3.7-4.7c4-1,10.7-1.3,20.4-1.7c1,0,1.7-0.3,2-1.3
		c13-24.4,22.4-41.5,28.1-50.8c1.7-2.7,4.3-4,7.7-4c9,0,21.1,12.4,21.1,20.1c0,1.7-0.7,3.3-1.7,4.3c-2.7,3-9,12.7-19.1,29.8
		c-0.3,0.3-0.3,0.7-0.3,1c0,1,0.7,1.3,1.7,1.3c9,0.3,14.4,0.7,16.7,1c3.7,0.7,5.4,2.3,5.4,4.7c0,5.7-9,13-19.7,14.4
		c-2.7,0.3-7.7,0.3-15.1,0.7c-1,0-2,0.3-2.3,1.3c-14.7,27.1-28.4,55.5-36.8,78.3c-4.3,11.7-6.4,19.7-6.4,24.4c0,4.3,1.7,6.4,5,6.4
		c4.7,0,11.4-5,20.1-14.7c8.7-9.7,17.1-20.4,25.1-32.4c7.7-11.7,16.1-24.8,24.4-39.1c0.3-0.3,0.7-0.7,1.3-0.7c3.3,0,9,4.3,9,7.4
		c0,0.3,0,1-0.3,1.3c-4.3,9.4-10,20.4-24.4,43.1c-7,11.4-14,21.4-20.7,30.1c-7,9-14.4,16.7-22.7,23.4c-8.4,6.7-16.1,10-22.4,10
		C464.3,245.8,454.2,233.8,454.2,214.1z"/>
</g>
<g class="st0">
	<path class="st2" d="M660,264.6c-1-5.7-9.7-13.7-25.8-24.4c-16.4-10.4-31.8-18.1-46.8-23.1c-0.3-0.3-0.7-0.3-1-0.3
		c-0.3,0-1,0.3-1.7,0.7c-9.4,8.4-19.1,12.7-29.1,12.7c-16.1,0-27.1-8.4-27.1-19.4c0-12,11.7-18.1,34.8-18.1c1.3,0,5.4,0.3,6.7,0.3
		c1,0,1.7-0.3,2-1.3c4.7-7.7,10-18.7,15.7-32.4c5.7-13.7,11-27.1,16.1-40.1c5-13,10.7-26.4,17.4-40.8c13-28.1,24.8-48.8,41.5-62.2
		c8.4-6.7,16.7-10,25.8-10c10,0,18.4,5.4,24.8,16.4c1,1.3,1.7,1.3,2.7,0c3-6.4,5.7-11,8-14c1.7-2.3,3.7-3.7,6-3.7
		c4.3,0,9,2.7,14,7.7c4.7,5.4,7,10.4,7,14.7c0,1.7-0.3,3-1.3,4c-7,9.7-15.7,24.4-26.1,44.5c-10.7,20.1-18.7,37.5-24.1,52.2
		c-0.7,2.3-2,3.3-4.3,3.3c-3.3,0-6.7-2-10.4-6.4s-5.7-9-5.7-14.4c0-11.7,9-35.8,27.4-72.3c0.3-0.3,0.3-1,0.3-1.3
		c0-1-0.7-1.7-2.3-1.7c-17.1,0-32.4,15.1-45.2,40.1c-6.4,12.4-12.4,25.1-17.7,38.1c-5.7,13-11.7,27.4-18.7,42.8
		c-7,15.7-13.4,28.1-19.4,37.8c-0.3,0.3-0.3,0.7-0.3,1c0,0.7,0.7,1,1.7,1.3c22.1,3.7,40.8,9.7,56.2,17.7
		c15.4,8.4,23.1,16.7,23.1,25.1c0,5.7-2.3,12-7,19.1c-5,7-9.4,10.4-13.4,10.4C661.6,268.6,660.3,267.3,660,264.6z"/>
</g>
<g class="st0">
	<path class="st2" d="M708.1,234.1c-7-7.7-10.4-17.7-10.4-30.1c0-10.4,2.7-22.4,7.7-36.5c5-14,11.7-27.4,19.4-40.1
		c7.7-12.7,16.7-23.4,27.4-32.4c10.4-9,20.4-13.4,30.1-13.4c13,0,22.4,7,28.1,20.7c0.3,0.7,0.7,1.3,1.3,2c5,4.3,7.4,11.7,7.4,22.1
		c0,14.4-4.7,31.1-13.7,50.2c-0.3,0.3-0.3,0.3-0.3,0.7c-0.3,1,0,1.3,1,1.3c0.3,0,0.3,0,0.7,0c4.3-1.7,9.4-5.7,14.4-11.7
		c5-6,9-11.4,12-15.7c2.7-4.3,6-10.4,10.4-17.7c0.3-1,1-2,1.3-2.7c0.3-0.3,1-0.3,1.3-0.3c2.3,0,9.4,4,9.4,6.7c0,0.7-0.3,1.3-0.7,2.3
		C834.2,182,813.2,203,792.1,203c-1.3,0-2.3,0.3-2.7,1c-17.4,25.1-38.1,41.8-56.9,41.8C723.2,245.8,715.1,241.8,708.1,234.1z
		 M773.3,186c0.3-0.7,0.7-1.3,0.7-2.3c0.3-7.7,3-16.1,7.4-25.1c4.3-9,9-16.1,14.7-21.4c0.7-0.7,1-1.3,1.3-2c1.7-5,2.3-10.7,2.3-17.4
		c0-7-2.3-10.4-7-10.4c-7,0-15.4,6-25.1,18.4c-9.7,12.4-18.1,26.4-25.1,42.1c-7,15.7-11,28.8-11.4,38.5c-0.3,8,2.7,12,8.4,12
		C748.9,218.4,760.3,207.7,773.3,186z"/>
	<path class="st2" d="M825.2,208.7c0-16.4,5-37.5,14.7-63.2c9.7-25.8,19.4-43.8,28.4-54.9c2.7-3,6-4.3,10-4.3c5,0,10,1.7,15.1,5.4
		c5,3.7,7.4,7,7.4,10c0,1-0.3,2-1,2.7c-5,5-11.4,14.7-18.4,29.1c-7.4,14.7-13.7,29.8-18.7,45.2c-5.4,15.4-8,26.4-8,33.5
		c0,4,1,6,3.3,6c6.7,0,16.1-9,28.1-27.1c11.7-17.7,22.4-37.1,31.8-57.9c9-20.7,14-35.5,14.4-43.8c1-4,3-6,6.7-6c4.3,0,8.7,2.3,13,7
		c4.3,4.7,6.7,9.7,6.7,14.7c0,11-10.4,35.5-26.1,61.5c-8,13-16.4,25.8-25.4,37.5c-9,12-18.7,22.1-28.4,29.8c-9.7,8-18.4,12-25.8,12
		C843.9,245.8,825.2,236.1,825.2,208.7z"/>
	<path class="st2" d="M945.3,202.7c0-14.4,4-31.1,12.4-49.8c8.4-18.7,19.1-35.1,32.1-49.2c13-13.7,25.8-20.7,37.5-20.7
		c15.1,0,34.5,12.7,34.5,32.4c0,15.1-7.4,29.4-21.7,42.8c-14.4,13.7-29.4,20.4-45.2,20.4c-4.3,0-9.7-1.3-9.7-1.3
		c-1,0-1.3,0.3-1.7,1.3c-3.3,10-5,18.4-5,25.4c0,11.4,4.7,17.1,13.7,17.1c14.4,0,36.1-14.4,53.9-37.1c10.7-13.7,20.7-28.8,30.1-44.8
		c0.3-0.7,1-1,1.3-1c2.7,0,7.7,4.3,7.7,8.4c0,4.7-7.4,18.1-22.1,40.1c-10.7,16.4-23.1,30.4-36.8,41.8c-14,11.7-28.1,17.4-42.5,17.4
		C961.3,245.8,945.3,228.5,945.3,202.7z M1023.9,141.5c10.4-13.7,15.4-24.1,15.4-31.8c0-3-1-4.3-3.3-4.3c-5,0-12,5.4-20.4,15.7
		c-8.7,10.4-16.4,22.7-23.4,37.1c-0.3,0.7-0.7,1.3-0.7,2c0,1.3,1.3,2,3.7,2C1004.1,162.2,1013.5,155.2,1023.9,141.5z"/>
</g>
</svg>
