<svg width="40" height="40" viewBox="0 0 40 40" fill="none" xmlns="http://www.w3.org/2000/svg">
<g clip-path="url(#clip0_457_12)">
<path d="M39.5714 30.3348C38.0824 27.5199 32.9117 24.4677 32.684 24.3342C32.0196 23.9561 31.3263 23.7558 30.6774 23.7558C29.7127 23.7558 28.923 24.1978 28.4447 25.0016C27.6883 25.9063 26.7503 26.9637 26.5226 27.1276C24.7607 28.323 23.3815 28.1873 21.8554 26.6612L13.3381 18.1432C11.8216 16.6267 11.6822 15.2304 12.8694 13.4781C13.0355 13.249 14.093 12.3102 14.9976 11.5531C15.5746 11.2098 15.9705 10.6996 16.1441 10.0737C16.3747 9.241 16.2049 8.26143 15.6606 7.30707C15.5323 7.08758 12.4786 1.9161 9.66525 0.42783C9.14024 0.149754 8.54849 0.00292969 7.95526 0.00292969C6.97791 0.00292969 6.05841 0.38408 5.3673 1.07445L3.48527 2.95573C0.508744 5.93152 -0.56871 9.30477 0.281091 12.9813C0.990001 16.0453 3.05592 19.3059 6.4225 22.6717L17.3268 33.576C21.5877 37.8369 25.6498 39.9977 29.4005 39.9977C32.159 39.9977 34.7314 38.8254 37.0428 36.514L38.9241 34.6327C40.0675 33.49 40.3271 31.7622 39.5714 30.3348Z" fill="#FF2727"/>
</g>
<defs>
<clipPath id="clip0_457_12">
<rect width="40" height="40" fill="white"/>
</clipPath>
</defs>
</svg>
